<svg version="1.1" xmlns="http://www.w3.org/2000/svg" viewBox="0 0 39.56832335814545 60.57667416018239" width="79.1366467162909" height="121.15334832036478">
  <g stroke-linecap="round"><g transform="translate(9.85909237829037 49.104866614637785) rotate(0 9.925069300782297 -18.81652953454659)"><path d="M1.05 -0.75 C3.68 -2.79, 14.32 -6.64, 16.78 -13.03 C19.24 -19.42, 16.21 -34.87, 15.8 -39.1 M0.14 1.47 C3.05 -0.88, 16.49 -8.34, 19.03 -14.99 C21.57 -21.63, 16.2 -34.62, 15.4 -38.39" stroke="#1e1e1e" stroke-width="1" fill="none"></path></g><g transform="translate(9.85909237829037 49.104866614637785) rotate(0 9.925069300782297 -18.81652953454659)"><path d="M21.99 -29.36 C20.31 -31.5, 15.96 -36.81, 14.88 -38.31 M23.1 -28.39 C20.97 -30.67, 18.8 -33.45, 15.81 -38.44" stroke="#1e1e1e" stroke-width="1" fill="none"></path></g><g transform="translate(9.85909237829037 49.104866614637785) rotate(0 9.925069300782297 -18.81652953454659)"><path d="M13.87 -26.96 C15.34 -30.1, 14.12 -36.33, 14.88 -38.31 M14.99 -25.99 C15.1 -29, 15.2 -32.45, 15.81 -38.44" stroke="#1e1e1e" stroke-width="1" fill="none"></path></g></g><mask></mask></svg>